<svg width="24" height="24" viewBox="0 0 24 24" fill="none" xmlns="http://www.w3.org/2000/svg">
<g id="facebook">
<path id="Subtract" fill-rule="evenodd" clip-rule="evenodd" d="M3 0C1.34315 0 0 1.34315 0 3V21C0 22.6569 1.34315 24 3 24H21C22.6569 24 24 22.6569 24 21V3C24 1.34315 22.6569 0 21 0H3ZM10.8255 19.8261V13.4348H8.34783V10.7909H10.8255V8.77587C10.8255 6.48358 12.2824 5.21739 14.5113 5.21739C15.5786 5.21739 16.6957 5.39603 16.6957 5.39603V7.64687H15.4652C14.2531 7.64687 13.8749 8.35196 13.8749 9.07598V10.7909H16.5813L16.1487 13.4348H13.8749V19.8261H10.8255Z" fill="#222221"/>
</g>
</svg>
