<svg width="24" height="24" viewBox="0 0 24 24" fill="none" xmlns="http://www.w3.org/2000/svg">
<g id="linkedin">
<path id="Subtract" fill-rule="evenodd" clip-rule="evenodd" d="M3 0C1.34315 0 0 1.34315 0 3V21C0 22.6569 1.34315 24 3 24H21C22.6569 24 24 22.6569 24 21V3C24 1.34315 22.6569 0 21 0H3ZM6.26087 6.72397C6.26087 7.55601 6.93393 8.23055 7.76758 8.23055C8.59781 8.23055 9.27087 7.55259 9.27087 6.72397C9.27087 5.89193 8.59781 5.21739 7.76758 5.21739C6.93393 5.21739 6.26087 5.89193 6.26087 6.72397ZM9.06588 17.7391V9.37076H6.46928V17.7391H9.06588ZM18.7826 17.7391H16.1894V13.6714C16.1894 12.7024 16.1723 11.4526 14.8399 11.4526C13.4903 11.4526 13.2853 12.5106 13.2853 13.6029V17.7391H10.6956V9.37076H13.1828V10.5144H13.217C13.5621 9.85697 14.4094 9.16189 15.6701 9.16189C18.2975 9.16189 18.7826 10.8945 18.7826 13.1475V17.7391Z" fill="#222221"/>
</g>
</svg>
